<svg height="26" viewBox="0 0 29 10" fill="currentcolor" xmlns="http://www.w3.org/2000/svg"><path d="M2.7 9.312C2.36 9.312 1.962 9.264 1.506 9.168C1.05 9.076 0.548 8.904 0 8.652L0.456 7.536C0.888 7.74 1.294 7.882 1.674 7.962C2.054 8.038 2.396 8.076 2.7 8.076C3.128 8.076 3.48 7.964 3.756 7.74C4.036 7.516 4.176 7.248 4.176 6.936C4.176 6.644 4.078 6.394 3.882 6.186C3.686 5.974 3.434 5.782 3.126 5.61C2.818 5.434 2.49 5.256 2.142 5.076C1.794 4.896 1.466 4.694 1.158 4.47C0.85 4.246 0.598 3.98 0.402 3.672C0.206 3.364 0.108 2.992 0.108 2.556C0.108 2.032 0.228 1.602 0.468 1.266C0.712 0.93 1.034 0.682 1.434 0.522C1.834 0.358 2.272 0.276 2.748 0.276C3.116 0.276 3.474 0.302 3.822 0.353999C4.17 0.402 4.596 0.508 5.1 0.672L4.656 1.764C4.304 1.66 3.982 1.586 3.69 1.542C3.398 1.498 3.12 1.476 2.856 1.476C2.496 1.476 2.208 1.564 1.992 1.74C1.776 1.916 1.668 2.14 1.668 2.412C1.668 2.684 1.766 2.922 1.962 3.126C2.162 3.326 2.416 3.512 2.724 3.684C3.036 3.856 3.366 4.036 3.714 4.224C4.062 4.412 4.39 4.624 4.698 4.86C5.01 5.096 5.264 5.38 5.46 5.712C5.66 6.04 5.76 6.436 5.76 6.9C5.76 7.416 5.632 7.854 5.376 8.214C5.12 8.57 4.762 8.842 4.302 9.03C3.842 9.218 3.308 9.312 2.7 9.312Z"></path><path d="M10.7218 9.156L8.52578 2.952H10.3018L11.5498 7.344L11.6338 7.704L11.7178 7.344L12.9538 2.952H15.6938L12.5098 9.156H10.7218ZM7.73778 9.156L5.55378 2.952H7.31778L8.56578 7.344L8.64978 7.704L8.73378 7.344L9 6C9.128 6.232 9.5 7 9.5 7L10 8L9.48978 9.156H7.73778Z"></path><path d="M15.6186 9.156V2.952H17.2986V9.156H15.6186ZM16.4586 2.136C16.1826 2.136 15.9486 2.042 15.7566 1.854C15.5686 1.662 15.4746 1.428 15.4746 1.152C15.4746 0.868 15.5686 0.63 15.7566 0.438C15.9486 0.242 16.1826 0.144 16.4586 0.144C16.7346 0.144 16.9666 0.242 17.1546 0.438C17.3466 0.63 17.4426 0.868 17.4426 1.152C17.4426 1.428 17.3466 1.662 17.1546 1.854C16.9666 2.042 16.7346 2.136 16.4586 2.136Z"></path><path d="M19.4019 9.156V4.14H18.4059V3.192L19.4019 2.952V2.616C19.4019 2.092 19.5079 1.634 19.7199 1.242C19.9359 0.85 20.2399 0.546 20.6319 0.33C21.0279 0.11 21.4939 0 22.0299 0C22.2299 0 22.4679 0.0259998 22.7439 0.0779994C23.0199 0.126 23.3139 0.22 23.6259 0.36L23.2539 1.428C23.0219 1.36 22.8239 1.312 22.6599 1.284C22.4999 1.252 22.3499 1.236 22.2099 1.236C21.9499 1.236 21.7279 1.294 21.5439 1.41C21.3639 1.522 21.2259 1.682 21.1299 1.89C21.0339 2.098 20.9859 2.34 20.9859 2.616V9.156H19.4019ZM21.3939 4.14C21.4459 3.964 21.5199 3.784 21.6159 3.6C21.7159 3.416 21.8459 3.262 22.0059 3.138C22.1659 3.014 22.3619 2.952 22.5939 2.952H23.1219V4.14H21.3939Z"></path><path d="M26.9802 9.312C26.2202 9.312 25.6382 9.094 25.2342 8.658C24.8302 8.222 24.6282 7.596 24.6282 6.78V4.14H23.6322V3.192L24.6282 2.952V1.476L26.2122 0.96V6.78C26.2122 7.188 26.2982 7.506 26.4702 7.734C26.6422 7.962 26.8682 8.076 27.1482 8.076C27.2642 8.076 27.3962 8.064 27.5442 8.04C27.6922 8.016 27.8682 7.968 28.0722 7.896L28.4202 8.988C28.1202 9.088 27.8542 9.166 27.6222 9.222C27.3942 9.282 27.1802 9.312 26.9802 9.312ZM27.8202 4.14C27.5882 4.14 27.3922 4.078 27.2322 3.954C27.0722 3.83 26.9422 3.676 26.8422 3.492C26.7462 3.308 26.6722 3.128 26.6202 2.952H28.3602V4.14H27.8202Z"></path></svg>